<svg id="Capa_1" enable-background="new 0 0 510 510" height="512" viewBox="0 0 510 510" width="512" xmlns="http://www.w3.org/2000/svg" xmlns:xlink="http://www.w3.org/1999/xlink"><linearGradient id="lg1"><stop offset="0" stop-color="#9cf8d2"/><stop offset=".7542" stop-color="#00c285"/><stop offset="1" stop-color="#006e66"/></linearGradient><linearGradient id="SVGID_1_" gradientUnits="userSpaceOnUse" x1="7.044" x2="502.956" xlink:href="#lg1" y1="255" y2="255"/><linearGradient id="SVGID_2_" gradientUnits="userSpaceOnUse" x1="-144.836" x2="419.136" xlink:href="#lg1" y1="255.002" y2="255.002"/><linearGradient id="SVGID_3_" gradientUnits="userSpaceOnUse" x1="260.842" x2="657.141" xlink:href="#lg1" y1="244.867" y2="244.867"/><linearGradient id="SVGID_4_" gradientUnits="userSpaceOnUse" x1="240.644" x2="518.714" xlink:href="#lg1" y1="192.842" y2="192.842"/><linearGradient id="lg2"><stop offset="0" stop-color="#f6a6d2"/><stop offset=".593" stop-color="#fe646f"/><stop offset="1" stop-color="#d90d80"/></linearGradient><linearGradient id="SVGID_5_" gradientUnits="userSpaceOnUse" x1="38.543" x2="471.457" xlink:href="#lg2" y1="211.636" y2="211.636"/><linearGradient id="lg3"><stop offset="0" stop-color="#918291"/><stop offset=".7487" stop-color="#7a6d79"/><stop offset="1" stop-color="#554e56"/></linearGradient><linearGradient id="SVGID_6_" gradientUnits="userSpaceOnUse" x1="88.046" x2="383.626" xlink:href="#lg3" y1="320.719" y2="320.719"/><linearGradient id="SVGID_9_" gradientUnits="userSpaceOnUse" x1="88.046" x2="383.626" xlink:href="#lg3" y1="202.718" y2="202.718"/><linearGradient id="SVGID_11_" gradientUnits="userSpaceOnUse" x1="88.046" x2="383.626" xlink:href="#lg3" y1="84.718" y2="84.718"/><linearGradient id="SVGID_12_" gradientUnits="userSpaceOnUse" x1="-95.339" x2="422.137" xlink:href="#lg2" y1="178.606" y2="178.606"/><g><path d="m219.125 20.718-207.561 359.723c-8.061 13.97-5.129 31.761 7.12 42.253 63.542 54.428 146.089 87.306 236.316 87.306s172.774-32.878 236.316-87.306c12.249-10.492 15.181-28.284 7.12-42.253l-207.561-359.723c-15.94-27.624-55.81-27.624-71.75 0z" fill="url(#SVGID_1_)"/><path d="m498.436 380.441-10.844-18.793-22.705-26.527-174.012-314.403c-11.919-20.656-37.216-25.861-55.885-15.626 6.298 3.453 11.844 8.658 15.865 15.626l207.562 359.723c8.061 13.969 5.129 31.761-7.12 42.253-58.813 50.377-133.912 82.27-216.306 86.742 6.626.36 13.294.564 20.01.564 90.227 0 172.774-32.878 236.316-87.306 12.248-10.492 15.18-28.283 7.119-42.253z" fill="url(#SVGID_2_)"/><path d="m219.125 51.304-180.829 282.807-15.935 27.616c59.562 59.493 141.804 96.284 232.639 96.284s173.077-36.791 232.638-96.284l-15.664-27.147-181.1-280.927c-15.939-27.625-55.809-29.973-71.749-2.349z" fill="url(#SVGID_3_)"/><path d="m234.99 5.092c6.298 3.453 11.844 8.658 15.864 15.626l207.562 359.723c.979 1.697 1.793 3.45 2.45 5.24 9.351-7.504 18.298-15.49 26.771-23.954l-196.762-341.009c-11.919-20.656-37.216-25.861-55.885-15.626z" fill="url(#SVGID_4_)"/><path d="m219.125 20.718-180.582 312.966c55.418 55.355 131.94 89.587 216.457 89.587s161.039-34.232 216.457-89.587l-180.582-312.966c-15.94-27.624-55.81-27.624-71.75 0z" fill="url(#SVGID_5_)"/><g><g fill="url(#SVGID_6_)"><path d="m133.056 294.431c-10.082 0-18.255 24.238-18.255 34.32s8.173 18.255 18.255 18.255 18.255-8.173 18.255-18.255-8.173-34.32-18.255-34.32z"/><path d="m255 294.431c-10.082 0-18.255 24.238-18.255 34.32s8.173 18.255 18.255 18.255 18.255-8.173 18.255-18.255-8.173-34.32-18.255-34.32z"/><path d="m376.944 294.431c-10.082 0-18.255 24.238-18.255 34.32s8.173 18.255 18.255 18.255 18.255-8.173 18.255-18.255-8.173-34.32-18.255-34.32z"/></g><path d="m194.028 176.431c-10.082 0-18.255 24.238-18.255 34.32s8.173 18.255 18.255 18.255 18.255-8.173 18.255-18.255-8.173-34.32-18.255-34.32z" fill="url(#SVGID_9_)"/><path d="m315.972 176.431c-10.082 0-18.255 24.238-18.255 34.32s8.173 18.255 18.255 18.255 18.255-8.173 18.255-18.255-8.173-34.32-18.255-34.32z" fill="url(#SVGID_9_)"/><path d="m255 58.43c-10.082 0-18.255 24.238-18.255 34.32s8.173 18.255 18.255 18.255 18.255-8.173 18.255-18.255-8.173-34.32-18.255-34.32z" fill="url(#SVGID_11_)"/></g><path d="m471.457 333.684-180.582-312.966c-11.919-20.656-37.216-25.861-55.885-15.626 6.298 3.453 11.844 8.658 15.864 15.626l194.156 336.49c9.263-7.335 18.099-15.185 26.447-23.524z" fill="url(#SVGID_12_)"/></g></svg>